<?xml version="1.0" encoding="utf-8"?>
<!-- Generator: Adobe Illustrator 16.0.3, SVG Export Plug-In . SVG Version: 6.00 Build 0)  -->
<!DOCTYPE svg PUBLIC "-//W3C//DTD SVG 1.1//EN" "http://www.w3.org/Graphics/SVG/1.1/DTD/svg11.dtd">
<svg version="1.1" xmlns="http://www.w3.org/2000/svg" xmlns:xlink="http://www.w3.org/1999/xlink" x="0px" y="0px"
	 width="33px" height="32px" viewBox="3.5 4 33 32" enable-background="new 3.5 4 33 32" xml:space="preserve">
<g>
	<path fill="#6D6E71" stroke="#6D6E71" stroke-miterlimit="10" d="M20.488,35.022c-8.279,0-15.012-6.732-15.012-15.012
		C5.477,11.733,12.209,5,20.488,5C28.768,5,35.5,11.733,35.5,20.011C35.5,28.29,28.768,35.022,20.488,35.022 M20.488,7.436
		c-6.934,0-12.574,5.641-12.574,12.575c0,6.932,5.641,12.577,12.574,12.577c6.933,0,12.576-5.646,12.576-12.577
		C33.064,13.077,27.421,7.436,20.488,7.436"/>
	<path fill="#6D6E71" d="M24.597,27.234c-0.333,0-0.671-0.125-0.931-0.38l-5.276-5.157V11.05c0-0.734,0.595-1.331,1.33-1.331
		c0.734,0,1.331,0.596,1.331,1.331v9.53l4.478,4.376c0.525,0.512,0.533,1.354,0.021,1.88C25.289,27.102,24.943,27.234,24.597,27.234
		"/>
</g>
</svg>
