<?xml version="1.0" standalone="no"?>
<!DOCTYPE svg PUBLIC "-//W3C//DTD SVG 20010904//EN"
 "http://www.w3.org/TR/2001/REC-SVG-20010904/DTD/svg10.dtd">
<svg version="1.0" xmlns="http://www.w3.org/2000/svg"
 width="700.000000pt" height="700.000000pt" viewBox="0 0 700.000000 700.000000"
 preserveAspectRatio="xMidYMid meet">
<metadata>
Created by potrace 1.11, written by Peter Selinger 2001-2013
</metadata>
<g transform="translate(0.000000,700.000000) scale(0.100000,-0.100000)"
fill="#000000" stroke="none">
<path d="M2978 6995 c-2 -2 -64 -6 -138 -10 -292 -15 -418 -24 -580 -45 -41
-5 -97 -12 -125 -15 -65 -8 -114 -15 -145 -20 -14 -3 -41 -7 -60 -10 -29 -5
-211 -40 -260 -50 -188 -39 -453 -129 -570 -193 -180 -99 -252 -185 -318 -377
-49 -143 -103 -412 -137 -685 -3 -25 -8 -56 -10 -70 -2 -14 -7 -56 -11 -95 -4
-38 -8 -77 -9 -85 -2 -8 -4 -22 -4 -32 -1 -11 -20 -22 -58 -34 -115 -36 -204
-123 -239 -233 -15 -49 -18 -102 -18 -416 -2 -382 4 -453 37 -525 26 -54 97
-128 152 -156 l40 -21 -4 -209 c-10 -495 -3 -1495 14 -1929 12 -313 17 -413
20 -434 3 -14 7 -77 10 -140 11 -203 35 -289 97 -352 55 -54 84 -60 285 -59
l182 0 3 -267 c3 -256 4 -270 26 -310 71 -135 205 -213 374 -218 196 -6 352
74 423 218 l27 57 1 260 0 260 1581 0 1581 0 1 -253 c0 -223 2 -258 20 -306
37 -104 163 -201 298 -229 26 -6 85 -9 130 -7 176 7 319 91 380 224 19 42 20
66 22 306 l1 260 124 1 c180 2 267 31 307 103 21 36 22 55 28 607 8 627 10
1935 4 2221 l-4 183 59 35 c108 65 168 150 183 261 10 75 8 758 -3 804 -22
103 -94 194 -188 239 -34 16 -77 31 -96 33 -30 4 -35 8 -36 34 -3 38 -14 140
-19 173 -3 14 -8 51 -11 81 -4 30 -9 62 -10 70 -2 8 -6 37 -9 64 -6 42 -48
257 -60 306 -55 221 -120 375 -193 456 -82 91 -262 188 -475 258 -117 39 -288
86 -359 100 -13 2 -69 13 -124 25 -135 27 -270 50 -395 66 -40 5 -131 15 -180
20 -25 3 -70 7 -100 10 -30 3 -66 8 -80 10 -24 3 -98 9 -285 21 -49 3 -115 8
-145 10 -56 5 -947 13 -952 9z m2070 -644 l22 -1 0 -240 0 -240 -1594 0
c-1266 0 -1595 3 -1598 13 -2 6 -4 112 -3 235 0 154 4 225 12 230 8 5 2961 7
3161 3z m565 -751 c16 0 17 -61 17 -1130 l0 -1130 -42 0 c-61 -1 -4207 -1
-4243 0 l-30 0 0 1127 0 1128 55 5 c39 4 4098 4 4243 0z m-3545 -3368 c192
-73 303 -229 304 -426 1 -124 -42 -226 -132 -317 -83 -84 -179 -128 -295 -134
-204 -11 -388 115 -453 310 -16 48 -20 80 -17 155 5 125 35 202 113 290 113
127 324 181 480 122z m3110 8 c126 -37 219 -116 277 -235 52 -106 64 -223 33
-325 -14 -45 -56 -130 -74 -147 -7 -8 -19 -22 -26 -32 -7 -10 -35 -34 -61 -54
-82 -62 -157 -89 -261 -92 -208 -6 -388 126 -449 330 -18 63 -15 204 6 261 58
158 193 278 343 304 59 10 162 5 212 -10z"/>
</g>
</svg>
